HIERARCHY
ROOT Hips
{
	OFFSET	0.00	0.00	0.00
	CHANNELS 6 Xposition Yposition Zposition Zrotation Xrotation Yrotation
	JOINT Spine
	{
		OFFSET	 0.00	0.01	 0.00
		CHANNELS 3 Zrotation Xrotation Yrotation
		JOINT Spine1
		{
			OFFSET	 0.00	 2.45913012437421	 0.00
			CHANNELS 3 Zrotation Xrotation Yrotation
            JOINT Neck
            {
                OFFSET	 0.00	 2.48462964506057	 0.00
                CHANNELS 3 Zrotation Xrotation Yrotation
                JOINT Head
                {
                    OFFSET	 0.00	 0.927524780924562	 0.00
                    CHANNELS 3 Zrotation Xrotation Yrotation
                    End Site 
                    {
                        OFFSET	 0.00	 1.14999962169752	 0.00
                    }
                }
            }
			JOINT LeftShoulder
			{
				OFFSET	 0.00	 2.48462964506057	 0.00
				CHANNELS 3 Zrotation Xrotation Yrotation
				JOINT LeftUpArm
				{
					OFFSET	 0.00	 1.24881979654096	 0.00
					CHANNELS 3 Zrotation Xrotation Yrotation
					JOINT LeftForeArm
					{
						OFFSET	 0.00	2.59758046908119	 0.00
						CHANNELS 3 Zrotation Xrotation Yrotation
						JOINT LeftHand
						{
							OFFSET	 0.00	2.45542024364365	 0.00
							CHANNELS 3 Zrotation Xrotation Yrotation
							JOINT LeftHandThumb 
							{
								OFFSET	 0.00	0.00	 0.00
								CHANNELS 3 Zrotation Xrotation Yrotation
								End Site
								{
									OFFSET	 0.00	0.00	1.00000003353624
								}
							}
							JOINT L_Wrist_End 
							{
								OFFSET	 0.00	0.99999967115358	 0.00
								CHANNELS 3 Zrotation Xrotation Yrotation
								End Site 
								{
									OFFSET	 0.00	 0.00	 0.00
								}
							}
						}
					}
				}
			}
			JOINT RightShoulder
			{
				OFFSET	 0.00	 2.48462964506057	 0.00
				CHANNELS 3 Zrotation Xrotation Yrotation
				JOINT RightUpArm
				{
					OFFSET	 0.00	 1.24881979654096	 0.00
					CHANNELS 3 Zrotation Xrotation Yrotation
					JOINT RightForeArm
					{
						OFFSET	 0.00	2.59758046908119	 0.00
						CHANNELS 3 Zrotation Xrotation Yrotation
						JOINT RightHand
						{
							OFFSET	 0.00	2.45542024364365	 0.00
							CHANNELS 3 Zrotation Xrotation Yrotation
							JOINT RightHandThumb 
							{
								OFFSET	 0.00	0.00	 0.00
								CHANNELS 3 Zrotation Xrotation Yrotation
								End Site
								{
									OFFSET	 0.00	0.00	1.00000003353624
								}
							}
							JOINT R_Wrist_End 
							{
								OFFSET	 0.00	0.99999967115358	 0.00
								CHANNELS 3 Zrotation Xrotation Yrotation
								End Site 
								{
									OFFSET	 0.00	 0.00	 0.00
								}
							}
						}
					}
				}
			}
		}
	}
	JOINT LeftUpLeg
	{
		OFFSET	 1.2719394002717	 0.00	 0.00
		CHANNELS 3 Zrotation Xrotation Yrotation
		JOINT LeftLowLeg
		{
			OFFSET	 0.00	-4.3429100912261	 0.00
			CHANNELS 3 Zrotation Xrotation Yrotation
			JOINT LeftFoot
			{
				OFFSET	 0.00	-4.48767017425826	 0.00
				CHANNELS 3 Zrotation Xrotation Yrotation
				JOINT LeftToeBase
                {
                    OFFSET	 0.00	0.00	 1.51507020887566
                    CHANNELS 3 Zrotation Xrotation Yrotation
                    End Site 
                    {
                        OFFSET	 0.00	0.00	 0.75000010571191
                    }
                }
			}
		}
	}
	JOINT RightUpLeg
	{
		OFFSET	 -1.2719393604653	 0.00	 0.00
		CHANNELS 3 Zrotation Xrotation Yrotation
		JOINT RightLowLeg
		{
			OFFSET	 0.00	-4.3429100912261	 0.00
			CHANNELS 3 Zrotation Xrotation Yrotation
			JOINT RightFoot
			{
				OFFSET	 0.00	-4.48767017425826	 0.00
				CHANNELS 3 Zrotation Xrotation Yrotation
				JOINT RightToeBase
                {
                    OFFSET	 0.00	0.00	 1.51507020887566
                    CHANNELS 3 Zrotation Xrotation Yrotation
                    End Site 
                    {
                        OFFSET	 0.00	0.00	 0.749999965609858
                    }
                }   
			}
		}
	}
}
MOTION 
Frames:	17 
Frame Time: 0.02 
  -1.445540008544922 -0.9826650238037109 10.4002001953125 -138.831 82.8954 116.421 4.70322 -13.9991 -9.34741 15.2188 41.5642 -1.68256 47.6282 40.6784 -110.005 54.3398 -18.5761 54.1807 -122.4618 4.20323 -6.11417 -34.8644 6.15428 31.0468 0.0 32.2082 0.0 7.58895 -7.8105 6.44467 0.0 0.0 0.0 0.0 0.0 0.0 110.529 4.76428 -0.880678 21.1096 20.9737 -13.6544 0.0 45.1046 0.0 -6.23932 -5.3247 -26.855 0.0 0.0 0.0 0.0 0.0 0.0 11.9667 3.24715 14.5283 0.0 10.9837 0.0 -12.2588 1.9686003 8.09508 0.0 -9.68553 0.0 8.74491 -9.78927 13.3805 0.0 15.8852 0.0 19.0377 9.18821 -24.3019 0.0 -9.92952 0.0 
  -1.4949899291992188 -0.9840390014648438 10.408499755859374 -142.051 82.7762 121.4 3.97491 -13.3984 -11.256 17.8576 41.1711 -1.95946 46.8247 40.605 -109.703 55.3718 -18.9457 53.4165 -123.7399 2.66215 -4.68559 -35.0175 7.94774 31.4547 0.0 32.4368 0.0 7.74436 -7.80962 5.43078 0.0 0.0 0.0 0.0 0.0 0.0 109.7221 3.94568 -0.248702 20.9994 18.2655 -16.0203 0.0 44.8275 0.0 -5.58143 -5.42096 -25.6752 0.0 0.0 0.0 0.0 0.0 0.0 12.3845 1.02153 12.6958 0.0 13.5392 0.0 -12.6332 1.8302002 8.65981 0.0 -10.243851 0.0 8.54512 -9.48746 11.8414 0.0 14.758 0.0 18.5752 9.04674 -24.5441 0.0 -9.8958 0.0 
  -1.542259979248047 -0.9824710083007813 10.416099853515625 -146.168 82.7015 127.297 3.33068 -12.9947 -12.9884 20.0168 40.812 -2.40572 46.0204 40.9483 -109.024 56.1756 -19.3458 52.5441 -124.178696 2.5796 -4.68383 -35.5559 6.8774 31.7899 0.0 33.5039 0.0 8.44531 -7.62339 3.87416 0.0 0.0 0.0 0.0 0.0 0.0 109.008804 3.31927 -0.434272 20.9098 15.5793 -17.9603 0.0 44.8522 0.0 -4.48686 -5.73551 -22.3635 0.0 0.0 0.0 0.0 0.0 0.0 12.5952 -1.43069 11.0734 0.0 16.3059 0.0 -12.9611 1.9476995 9.04687 0.0 -10.91675 0.0 8.29195 -9.30044 11.2675 0.0 13.7386 0.0 18.7496 8.49378 -25.353 0.0 -9.7977 0.0 
  -1.587550048828125 -0.9831719970703126 10.425999755859374 -149.447 82.6687 132.159 3.02417 -12.7322 -14.2145 21.511 40.7865 -3.10366 45.5747 41.111 -108.62 56.7572 -19.5277 52.2069 -124.217896 2.40651 -4.76761 -36.063 6.02826 32.1837 0.0 34.5432 0.0 9.0431 -7.37473 2.2345 0.0 0.0 0.0 0.0 0.0 0.0 108.5016 2.71654 -0.310876 21.3203 12.8689 -19.9521 0.0 45.0135 0.0 -2.27875 -6.09869 -18.0286 0.0 0.0 0.0 0.0 0.0 0.0 12.6601 -3.6926 9.47669 0.0 19.0169 0.0 -13.5149 2.2777004 9.64013 0.0 -11.829411 0.0 8.1097 -9.18215 11.1851 0.0 13.1028 0.0 19.1265 7.89927 -26.4242 0.0 -9.80017 0.0 
  -1.630679931640625 -0.9877200317382813 10.439200439453124 -151.266 82.7671 135.225 3.05125 -12.5219 -14.895 22.4604 41.1128 -3.93467 45.4249 41.127 -108.463 57.2438 -19.5469 52.2977 -124.1465 2.35428 -4.75605 -36.2715 5.3856 32.6534 0.0 35.4606 0.0 9.51822 -7.01606 -0.645156 0.0 0.0 0.0 0.0 0.0 0.0 108.1583 2.08153 0.103501 22.0507 10.0916 -21.9984 0.0 45.3585 0.0 0.601358 -5.84614 -12.7364 0.0 0.0 0.0 0.0 0.0 0.0 12.6648 -5.40512 8.34201 0.0 21.3567 0.0 -14.2516 2.8810997 10.0108 0.0 -12.93729 0.0 7.93532 -8.89354 10.8139 0.0 12.5559 0.0 19.2482 7.65699 -27.139 0.0 -9.6949005 0.0 
  -1.671320037841797 -0.9957080078125 10.451400146484374 -153.26 82.9362 138.108 3.28381 -12.3871 -15.1561 22.8544 41.4288 -4.66032 45.62 41.2153 -108.534 57.6124 -19.5837 52.621 -123.957596 2.40395 -4.78636 -36.3543 4.7077 33.2144 0.0 36.1476 0.0 9.69726 -6.7767 -3.50615 0.0 0.0 0.0 0.0 0.0 0.0 107.9581 1.39719 0.608979 23.0533 7.1287 -23.8966 0.0 46.0575 0.0 3.67742 -5.04376 -5.87707 0.0 0.0 0.0 0.0 0.0 0.0 12.5532 -6.80997 7.48365 0.0 23.4187 0.0 -15.1824 3.5703 10.3663 0.0 -14.127514 0.0 7.691 -8.5364 10.3198 0.0 12.0186 0.0 19.0477 7.61252 -27.4471 0.0 -9.60346 0.0 
  -1.7108200073242188 -1.007030029296875 10.461300048828125 -155.757 83.2216 141.135 3.66718 -12.2595 -14.9962 22.6519 41.6706 -5.18377 46.1789 41.4717 -108.752 58.0641 -19.6365 53.2209 -123.632095 2.50957 -4.88573 -36.3561 3.99618 33.7967 0.0 36.603 0.0 9.51568 -6.56938 -5.54229 0.0 0.0 0.0 0.0 0.0 0.0 108.1085 0.563335 1.19487 24.013 4.07148 -25.707 0.0 47.3216 0.0 6.30429 -4.21996 2.02722 0.0 0.0 0.0 0.0 0.0 0.0 12.3011 -7.83817 6.91082 0.0 25.1045 0.0 -16.2907 4.2860003 10.6886 0.0 -15.38797 0.0 7.37122 -8.12024 9.99568 0.0 11.5432 0.0 19.0141 7.33385 -27.5513 0.0 -9.26729 0.0 
  -1.7473699951171875 -1.0188200378417969 10.4697998046875 -158.628 83.4967 144.193 4.10837 -12.0963 -14.6808 22.1754 41.7649 -5.54684 46.7115 41.9473 -108.838 58.3649 -19.862 53.9227 -123.2967 2.5213 -4.88974 -36.4065 3.35161 34.1192 0.0 36.9022 0.0 9.03072 -6.50853 -6.20096 0.0 0.0 0.0 0.0 0.0 0.0 108.337 -0.199904 1.52656 24.9431 0.97178 -27.2677 0.0 49.129 0.0 8.34712 -4.51293 7.56828 0.0 0.0 0.0 0.0 0.0 0.0 11.9781 -8.6305 6.34495 0.0 26.5184 0.0 -17.4923 4.7767 11.1756 0.0 -16.22195 0.0 7.06844 -7.8224 9.61495 0.0 11.2445 0.0 18.755 7.29255 -27.4377 0.0 -9.1931 0.0 
  -1.780679931640625 -1.0289700317382813 10.478299560546875 -162.014 83.6564 147.421 4.68913 -11.934 -14.1669 21.3305 41.7027 -5.81926 47.0782 42.8107 -108.45 58.6587 -20.1795 54.801 -122.9328 2.39931 -4.90511 -36.4789 2.73641 34.2408 0.0 37.0145 0.0 8.56437 -6.55443 -5.61627 0.0 0.0 0.0 0.0 0.0 0.0 108.6239 -0.927016 1.86498 25.9564 -2.12046 -28.5602 0.0 51.4197 0.0 8.88841 -2.8395 18.6221 0.0 0.0 0.0 0.0 0.0 0.0 11.662 -9.34377 5.91805 0.0 27.7919 0.0 -18.4976 5.0018797 11.7957 0.0 -16.3378 0.0 6.8342 -7.70579 9.49408 0.0 11.0455 0.0 18.4007 7.4302 -27.3064 0.0 -9.23026 0.0 
  -1.8060699462890626 -1.0324099731445313 10.486600341796875 -167.224 83.574 152.051 5.38733 -11.7936 -13.4509 20.0509 41.3812 -5.93589 47.2951 43.9432 -107.717 58.8803 -20.6308 56.1375 -122.5709 2.15993 -5.01097 -36.555 2.03411 34.207 0.0 36.9815 0.0 8.20758 -6.62763 -4.5129 0.0 0.0 0.0 0.0 0.0 0.0 109.0271 -1.69479 2.36721 26.9686 -4.80407 -30.3718 0.0 53.125 0.0 9.08983 -2.64267 26.4647 0.0 0.0 0.0 0.0 0.0 0.0 11.2341 -10.1885 5.58852 0.0 28.9542 0.0 -19.315 4.9205 12.6802 0.0 -15.76988 0.0 6.57812 -8.05112 9.80097 0.0 11.0683 0.0 18.2236 7.4988 -27.1141 0.0 -9.15032 0.0 
  -1.8302000427246095 -1.0424800109863281 10.49530029296875 -172.203 83.3962 156.457 6.1289 -11.8694 -12.7428 18.6327 41.1815 -6.32702 47.1637 45.2464 -106.486 58.996 -21.1181 57.9413 -122.078995 1.91822 -5.10749 -36.7125 1.33443 34.0547 0.0 36.7709 0.0 7.91169 -6.72838 -3.6521 0.0 0.0 0.0 0.0 0.0 0.0 109.41 -2.28149 3.0092 28.1411 -7.46083 -31.7279 0.0 54.9934 0.0 9.93357 -3.41345 34.2768 0.0 0.0 0.0 0.0 0.0 0.0 10.7482 -11.019 5.06959 0.0 30.0513 0.0 -19.3958 4.7195997 13.7302 0.0 -15.542308 0.0 6.3047 -8.35765 9.88999 0.0 10.9992 0.0 17.9141 7.76675 -26.7573 0.0 -9.23236 0.0 
  -1.8476800537109375 -1.0494999694824219 10.50300048828125 -177.624 83.1482 160.959 6.98007 -11.8495 -11.7742 16.8186 40.908 -6.63319 46.8029 46.7043 -104.828 59.2726 -21.5899 60.426 -121.4731 1.68417 -5.30223 -36.8672 0.589943 34.0566 0.0 36.4567 0.0 7.86404 -6.91859 -3.35717 0.0 0.0 0.0 0.0 0.0 0.0 110.0157 -2.61202 3.56888 29.1888 -10.0453 -32.6799 0.0 56.7803 0.0 10.6964 -2.97573 40.9707 0.0 0.0 0.0 0.0 0.0 0.0 10.1439 -11.7949 4.61634 0.0 31.0814 0.0 -17.9262 4.6997004 14.8987 0.0 -16.65337 0.0 5.98005 -8.8093 10.1199 0.0 11.0102 0.0 17.6503 7.99493 -26.2211 0.0 -9.24687 0.0 
  -1.861929931640625 -1.0539199829101562 10.50949951171875 177.496 82.8305 164.683 7.59631 -11.7737 -11.0517 15.4236 40.7328 -6.91216 45.0947 48.4412 -101.761 59.3929 -22.2678 62.5628 -120.992096 1.54806 -5.40392 -37.1513 -0.0887404 34.1749 0.0 36.0498 0.0 7.82288 -7.12546 -3.58073 0.0 0.0 0.0 0.0 0.0 0.0 110.0925 -3.30748 4.028 30.4882 -11.7524 -33.7154 0.0 58.2707 0.0 11.0885 -3.25698 46.829 0.0 0.0 0.0 0.0 0.0 0.0 9.57566 -12.547 4.14717 0.0 32.1268 0.0 -16.1438 4.6990995 15.4122 0.0 -17.4582 0.0 5.74474 -9.37908 10.809 0.0 11.1585 0.0 17.4374 8.16156 -25.8499 0.0 -9.21968 0.0 
  -1.8733000183105468 -1.0558799743652343 10.514300537109374 173.451 82.4403 167.378 8.27135 -11.5721 -10.2191 13.8428 40.4188 -7.11933 43.3686 50.3991 -98.4399 59.7616 -22.9754 65.0982 -120.4914 1.38405 -5.38241 -37.3011 -0.591321 34.536 0.0 35.6432 0.0 7.82782 -7.36965 -4.04481 0.0 0.0 0.0 0.0 0.0 0.0 110.4853 -3.61564 4.21464 31.4685 -13.4195 -34.4423 0.0 59.3381 0.0 11.5748 -2.15124 53.0448 0.0 0.0 0.0 0.0 0.0 0.0 9.09518 -13.2703 3.48592 0.0 33.1712 0.0 -15.3724 4.4490004 15.1749 0.0 -17.75922 0.0 5.60894 -10.0171 11.6249 0.0 11.3249 0.0 17.1868 8.42701 -25.4578 0.0 -9.23189 0.0 
  -1.8854299926757812 -1.060459976196289 10.5175 170.403 82.0693 169.046 8.84506 -11.4372 -9.51931 12.5024 40.3449 -7.41661 40.946 52.3535 -94.4321 60.1869 -23.7654 67.5331 -119.9951 1.31529 -5.46277 -37.4431 -1.05122 35.1022 0.0 35.3345 0.0 7.6212 -7.53695 -3.94534 0.0 0.0 0.0 0.0 0.0 0.0 110.7214 -4.04819 4.83809 32.4493 -14.8528 -35.3233 0.0 60.4286 0.0 12.3294 -1.12588 57.0317 0.0 0.0 0.0 0.0 0.0 0.0 8.71841 -13.8481 2.62672 0.0 34.0077 0.0 -15.2688 4.2249002 14.3148 0.0 -18.242199 0.0 5.56527 -10.5109 12.5474 0.0 11.3491 0.0 16.9572 8.7142105 -25.1465 0.0 -9.2416 0.0 
  -1.8922500610351562 -1.054010009765625 10.518299560546875 167.71 81.4719 170.035 9.24887 -11.2199 -8.85201 11.3543 40.1746 -7.44912 37.4978 54.3727 -89.2333 60.6297 -24.4941 69.4713 -119.5588 1.32929 -5.56051 -37.5772 -1.44327 35.8504 0.0 35.1618 0.0 7.42652 -7.60594 -3.50914 0.0 0.0 0.0 0.0 0.0 0.0 111.0028 -4.13042 4.85906 33.3013 -16.0286 -35.5305 0.0 61.9265 0.0 12.7283 -0.880039 58.7876 0.0 0.0 0.0 0.0 0.0 0.0 8.53195 -14.6157 2.16587 0.0 34.725 0.0 -14.9339 4.2237997 13.2127 0.0 -19.062439 0.0 5.66601 -11.3252 14.0635 0.0 11.4345 0.0 16.8876 9.006969 -24.9626 0.0 -9.25546 0.0 
  -1.9000100708007812 -1.051539993286133 10.518399658203125 165.503 81.0232 170.336 9.5563 -10.9426 -8.13308 10.1776 40.2087 -7.4588 33.5337 56.1979 -83.5759 60.9079 -25.281 71.5371 -119.086 1.33819 -5.64412 -37.6498 -1.67177 36.4779 0.0 35.1325 0.0 6.89668 -7.74404 -2.43956 0.0 0.0 0.0 0.0 0.0 0.0 111.3396 -3.97517 5.03241 34.1304 -17.0993 -35.9163 0.0 63.132 0.0 13.039 -0.479986 60.4804 0.0 0.0 0.0 0.0 0.0 0.0 8.46457 -14.9918 1.91814 0.0 35.0024 0.0 -14.3337 4.1687 12.1429 0.0 -20.04494 0.0 5.80742 -11.8726 15.7355 0.0 11.3398 0.0 16.8339 9.378651 -24.725 0.0 -9.31428 0.0 
